<svg xmlns="http://www.w3.org/2000/svg" viewBox="0 0 1200 750" font-family="-apple-system, BlinkMacSystemFont, 'Segoe UI', Roboto, 'Helvetica Neue', Arial, sans-serif">
<rect width="1200" height="750" fill="#f5f5f5"/>

<rect x="0" y="0" width="1200" height="68" fill="#dee1e6"/>
<circle cx="20" cy="22" r="6" fill="#ff5f56"/>
<circle cx="40" cy="22" r="6" fill="#ffbd2e"/>
<circle cx="60" cy="22" r="6" fill="#27c93f"/>
<path d="M 90 44 Q 90 12 110 12 L 320 12 Q 340 12 340 44 Z" fill="#fff"/>
<circle cx="115" cy="28" r="7" fill="#1a73e8"/>
<text x="130" y="32" font-size="12" fill="#202124">2026-06-28_スタバ配信_コメント抽出</text>
<rect x="110" y="46" width="980" height="22" rx="11" fill="#fff" stroke="#dadce0"/>
<text x="124" y="61" font-size="11" fill="#5f6368">🔒 docs.google.com/spreadsheets/d/.../edit</text>

<!-- Spreadsheet title row -->
<rect x="0" y="68" width="1200" height="44" fill="#fff" stroke="#e8eaed"/>
<text x="20" y="96" font-size="16" font-weight="700" fill="#202124">📗 2026-06-28_スタバ配信_コメント抽出</text>
<text x="20" y="112" font-size="11" fill="#5f6368">ドライブで表示  ☆  すべての変更内容を Google ドライブに保存しました</text>

<!-- Menu bar -->
<rect x="0" y="112" width="1200" height="36" fill="#fff" stroke="#e8eaed"/>
<g font-size="13" fill="#3c4043">
<text x="20" y="135">ファイル</text>
<text x="84" y="135">編集</text>
<text x="132" y="135">表示</text>
<text x="180" y="135">挿入</text>
<text x="228" y="135">表示形式</text>
<text x="304" y="135">データ</text>
<text x="368" y="135">ツール</text>
<rect x="424" y="119" width="86" height="24" fill="#e8f0fe" rx="3"/>
<text x="432" y="135" font-weight="700" fill="#fa006d">拡張機能</text>
<text x="500" y="135" font-weight="700" fill="#fa006d">▾</text>
<text x="528" y="135">ヘルプ</text>
</g>

<!-- Dimmed sheet background BELOW dropdown -->
<rect x="0" y="148" width="1200" height="602" fill="#fafbfc"/>
<!-- row numbers + column letters guide -->
<rect x="0" y="148" width="40" height="602" fill="#f1f3f4"/>
<rect x="40" y="148" width="1160" height="24" fill="#f1f3f4"/>
<g font-size="11" fill="#5f6368" text-anchor="middle">
<text x="20" y="186">1</text><text x="20" y="208">2</text><text x="20" y="230">3</text><text x="20" y="252">4</text>
<text x="20" y="274">5</text><text x="20" y="296">6</text><text x="20" y="318">7</text><text x="20" y="340">8</text>
<text x="80" y="164">A</text><text x="180" y="164">B</text><text x="280" y="164">C</text><text x="400" y="164">D</text><text x="600" y="164">E</text><text x="900" y="164">F</text>
</g>
<g stroke="#e8eaed" stroke-width="0.5">
<line x1="40" y1="172" x2="1200" y2="172"/><line x1="40" y1="194" x2="1200" y2="194"/><line x1="40" y1="216" x2="1200" y2="216"/>
<line x1="40" y1="238" x2="1200" y2="238"/><line x1="40" y1="260" x2="1200" y2="260"/><line x1="40" y1="282" x2="1200" y2="282"/>
<line x1="40" y1="304" x2="1200" y2="304"/><line x1="40" y1="326" x2="1200" y2="326"/><line x1="40" y1="348" x2="1200" y2="348"/>
<line x1="120" y1="172" x2="120" y2="750"/><line x1="240" y1="172" x2="240" y2="750"/><line x1="340" y1="172" x2="340" y2="750"/>
<line x1="500" y1="172" x2="500" y2="750"/><line x1="780" y1="172" x2="780" y2="750"/>
</g>
<!-- Header row of sheet (row 1) -->
<rect x="40" y="172" width="1160" height="22" fill="#1a1a2e"/>
<g font-size="11" font-weight="700" fill="#fff">
<text x="80" y="187" text-anchor="middle">☐</text>
<text x="180" y="187" text-anchor="middle">時刻</text>
<text x="290" y="187" text-anchor="middle">媒体</text>
<text x="420" y="187">username</text>
<text x="620" y="187">comment</text>
<text x="900" y="187">F (手動)</text>
</g>

<!-- Dim everything below the menu -->
<rect x="0" y="148" width="1200" height="602" fill="rgba(60,64,67,0.18)"/>

<!-- DROPDOWN MENU - drawn LAST so it's on top -->
<g>
<!-- Shadow -->
<rect x="425" y="150" width="316" height="328" fill="rgba(0,0,0,0.25)" rx="8" filter="blur(8px)"/>
<rect x="420" y="148" width="316" height="328" fill="#fff" rx="8" stroke="#e8eaed"/>

<!-- アドオン -->
<rect x="420" y="160" width="316" height="40" fill="#fff"/>
<text x="440" y="186" font-size="13" fill="#202124">🧩  アドオン</text>
<text x="716" y="186" font-size="13" fill="#5f6368">▸</text>

<!-- Apps Script - highlighted -->
<rect x="420" y="208" width="316" height="48" fill="#fef0f5"/>
<rect x="420" y="208" width="4" height="48" fill="#fa006d"/>
<text x="446" y="238" font-size="14" font-weight="700" fill="#fa006d">⚙️  Apps Script</text>

<!-- AppSheet -->
<rect x="420" y="264" width="316" height="40" fill="#fff"/>
<text x="440" y="290" font-size="13" fill="#202124">📱  AppSheet</text>
<text x="716" y="290" font-size="13" fill="#5f6368">▸</text>

<!-- マクロ -->
<rect x="420" y="312" width="316" height="40" fill="#fff"/>
<text x="440" y="338" font-size="13" fill="#202124">🔌  マクロ</text>
<text x="716" y="338" font-size="13" fill="#5f6368">▸</text>

<!-- divider -->
<line x1="436" y1="368" x2="720" y2="368" stroke="#e8eaed"/>

<!-- 拡張機能を管理 -->
<rect x="420" y="376" width="316" height="40" fill="#fff"/>
<text x="440" y="402" font-size="13" fill="#202124">⚙  拡張機能を管理</text>

<!-- Chrome ウェブストア -->
<rect x="420" y="424" width="316" height="40" fill="#fff"/>
<text x="440" y="450" font-size="13" fill="#202124">🌐  Chrome ウェブストアを開く</text>
</g>

<!-- CALLOUT — Positioned to the RIGHT of dropdown, no overlap -->
<g>
<path d="M 770 232 L 820 232" stroke="#fa006d" stroke-width="3" fill="none" marker-end="url(#a6)"/>
<defs><marker id="a6" viewBox="0 0 10 10" refX="9" refY="5" markerWidth="8" markerHeight="8" orient="auto"><path d="M 0 0 L 10 5 L 0 10 z" fill="#fa006d"/></marker></defs>

<rect x="820" y="200" width="360" height="120" fill="#fa006d" rx="10"/>
<text x="844" y="234" font-size="16" font-weight="700" fill="#fff">📌 ここをクリック</text>
<text x="844" y="262" font-size="13" fill="#fff">複製先スプシ専用の Apps Script</text>
<text x="844" y="282" font-size="13" fill="#fff">エディタが新しいタブで開きます</text>
<text x="844" y="306" font-size="11" fill="#fff" opacity="0.8">コードはマスターからコピー済みです</text>
</g>

<!-- Top hint about menu sequence -->
<rect x="20" y="568" width="1160" height="60" fill="#1a1a2e" rx="8"/>
<text x="44" y="600" font-size="14" font-weight="700" fill="#fff">📋 操作の流れ:</text>
<text x="200" y="600" font-size="14" fill="#fff">① 拡張機能 ▾  をクリック  →  ② Apps Script を選択  →  ③ 新しいタブでエディタが開く</text>

</svg>
