<svg xmlns="http://www.w3.org/2000/svg" viewBox="0 0 1534 768" font-family="-apple-system, BlinkMacSystemFont, 'Roboto', 'Helvetica Neue', Arial, sans-serif">
<rect width="1534" height="768" fill="#fff"/>

<!-- =====TITLE BAR (white) ===== -->
<rect x="0" y="0" width="1534" height="56" fill="#fff"/>
<!-- Sheets icon -->
<rect x="6" y="8" width="40" height="40" rx="8" fill="#0f9d58"/>
<path d="M16 18 h20 v4 h-20 z M16 26 h20 v4 h-20 z M16 34 h20 v4 h-20 z" fill="#fff" opacity="0.75"/>
<!-- File title -->
<text x="54" y="27" font-size="18" fill="#202124">2026-06-28_スタバ配信_コメント抽出</text>
<!-- Star + folder + cloud icons -->
<text x="362" y="27" font-size="16" fill="#5f6368">☆</text>
<text x="388" y="28" font-size="16" fill="#5f6368">📁</text>
<text x="416" y="28" font-size="16" fill="#5f6368">☁</text>
<!-- Menu bar items -->
<g font-size="14" fill="#3c4043">
<text x="72" y="49">ファイル</text>
<text x="124" y="49">編集</text>
<text x="164" y="49">表示</text>
<text x="204" y="49">挿入</text>
<text x="244" y="49">表示形式</text>
<text x="316" y="49">データ</text>
<text x="364" y="49">ツール</text>
<text x="416" y="49" fill="#1a73e8">Gemini</text>
<!-- 拡張機能 highlighted -->
<rect x="472" y="35" width="60" height="20" rx="3" fill="#e8eaed"/>
<text x="478" y="49" font-weight="500" fill="#202124">拡張機能</text>
<text x="540" y="49">ヘルプ</text>
<text x="582" y="49">ユーザー補助機能</text>
</g>
<!-- Right side icons -->
<g>
<circle cx="1195" cy="32" r="14" fill="none"/><text x="1188" y="38" font-size="16" fill="#5f6368">↶</text>
<text x="1235" y="38" font-size="16" fill="#5f6368">💬</text>
<rect x="1276" y="20" width="38" height="24" rx="12" fill="#fff" stroke="#dadce0"/><text x="1284" y="36" font-size="13" fill="#5f6368">📹</text><text x="1304" y="38" font-size="10" fill="#5f6368">▾</text>
<rect x="1334" y="14" width="64" height="36" rx="18" fill="#c2e7ff"/><text x="1348" y="36" font-size="14" font-weight="500" fill="#001d35">🔒 共有</text><text x="1382" y="36" font-size="10" fill="#001d35">▾</text>
<text x="1418" y="38" font-size="20" fill="#1a73e8">✦</text>
<circle cx="1490" cy="32" r="16" fill="#a78bfa"/>
</g>

<!-- ===== TOOLBAR (sub-bar) ===== -->
<rect x="0" y="56" width="1534" height="44" fill="#fff"/>
<g font-size="13" fill="#3c4043">
<rect x="20" y="68" width="88" height="22" rx="11" fill="#f1f3f4"/>
<text x="32" y="84" font-size="14">≡</text><text x="50" y="84">メニュー</text>
<text x="116" y="84" fill="#5f6368">↶</text>
<text x="142" y="84" fill="#5f6368">↷</text>
<text x="170" y="84" fill="#5f6368">🖨</text>
<text x="198" y="84" fill="#5f6368">🎨</text>
<text x="226" y="84" font-weight="500">100%</text><text x="262" y="84" fill="#5f6368">▾</text>
<text x="296" y="84" fill="#5f6368">¥</text>
<text x="320" y="84" fill="#5f6368">%</text>
<text x="346" y="84" fill="#5f6368">.0</text>
<text x="370" y="84" fill="#5f6368">.00</text>
<text x="398" y="84" fill="#5f6368">123</text>
<rect x="436" y="68" width="88" height="22" fill="#fff" stroke="#dadce0" rx="3"/><text x="448" y="84">デフォ...</text><text x="510" y="84" fill="#5f6368">▾</text>
<text x="540" y="84" fill="#5f6368">−</text>
<rect x="556" y="68" width="34" height="22" fill="#fff" stroke="#dadce0" rx="3"/><text x="566" y="84">10</text>
<text x="602" y="84" fill="#5f6368">+</text>
<text x="630" y="84" font-weight="700">B</text>
<text x="656" y="84" font-style="italic">I</text>
<text x="680" y="84" text-decoration="line-through">S</text>
<text x="708" y="84" fill="#5f6368">A</text><line x1="700" y1="86" x2="724" y2="86" stroke="#202124" stroke-width="2"/>
<text x="744" y="84" fill="#5f6368">🪣</text>
<text x="780" y="84" fill="#5f6368">⊞</text>
<text x="824" y="84" fill="#5f6368">↹</text>
<text x="868" y="84" fill="#5f6368">≡</text><text x="888" y="84" fill="#5f6368">▾</text>
<text x="912" y="84" fill="#5f6368">↕</text><text x="932" y="84" fill="#5f6368">▾</text>
<text x="956" y="84" fill="#5f6368">↩</text><text x="976" y="84" fill="#5f6368">▾</text>
<text x="1004" y="84" fill="#5f6368">↻</text>
<text x="1028" y="84" fill="#5f6368">A</text>
<text x="1058" y="84" fill="#5f6368">🔗</text>
<text x="1086" y="84" fill="#5f6368">💬</text>
<text x="1116" y="84" fill="#5f6368">📊</text>
<text x="1146" y="84" fill="#5f6368">▽</text>
<text x="1176" y="84" fill="#5f6368">Σ</text>
<text x="1206" y="84" fill="#5f6368">あ</text>
<text x="1424" y="84" fill="#5f6368">⌃</text>
</g>

<!-- ===== Name box + formula bar ===== -->
<rect x="0" y="100" width="1534" height="32" fill="#fff" stroke="#e8eaed" stroke-width="0.5"/>
<rect x="6" y="106" width="80" height="22" fill="#fff" stroke="#dadce0" rx="3"/>
<text x="18" y="121" font-size="12" fill="#202124">1:1000</text>
<text x="90" y="123" font-size="14" fill="#5f6368">▾</text>
<text x="112" y="121" font-size="14" fill="#5f6368" font-style="italic">fx</text>

<!-- ===== Column headers ===== -->
<rect x="0" y="132" width="1534" height="24" fill="#f8f9fa"/>
<rect x="40" y="132" width="1494" height="24" fill="#d2e3fc"/>
<g font-size="11" fill="#5f6368" text-anchor="middle">
<text x="86" y="148" fill="#1967d2" font-weight="500">A</text>
<text x="178" y="148" fill="#1967d2" font-weight="500">B</text>
<text x="268" y="148" fill="#1967d2" font-weight="500">C</text>
<text x="358" y="148" fill="#1967d2" font-weight="500">D</text>
<text x="448" y="148" fill="#1967d2" font-weight="500">E</text>
<text x="538" y="148" fill="#1967d2" font-weight="500">F</text>
<text x="628" y="148" fill="#1967d2" font-weight="500">G</text>
<text x="718" y="148" fill="#1967d2" font-weight="500">H</text>
<text x="808" y="148" fill="#1967d2" font-weight="500">I</text>
<text x="898" y="148" fill="#1967d2" font-weight="500">J</text>
<text x="988" y="148" fill="#1967d2" font-weight="500">K</text>
<text x="1078" y="148" fill="#1967d2" font-weight="500">L</text>
<text x="1168" y="148" fill="#1967d2" font-weight="500">M</text>
<text x="1258" y="148" fill="#1967d2" font-weight="500">N</text>
<text x="1348" y="148" fill="#1967d2" font-weight="500">O</text>
<text x="1438" y="148" fill="#1967d2" font-weight="500">P</text>
</g>

<!-- ===== Row numbers + grid cells (light blue selected) ===== -->
<rect x="0" y="156" width="40" height="600" fill="#d2e3fc"/>
<rect x="40" y="156" width="1494" height="600" fill="#e8f0fe"/>
<!-- Grid lines -->
<g stroke="#dadce0" stroke-width="0.5">
<line x1="40" y1="156" x2="40" y2="756"/>
<line x1="132" y1="156" x2="132" y2="756"/>
<line x1="222" y1="156" x2="222" y2="756"/>
<line x1="312" y1="156" x2="312" y2="756"/>
<line x1="402" y1="156" x2="402" y2="756"/>
<line x1="492" y1="156" x2="492" y2="756"/>
<line x1="582" y1="156" x2="582" y2="756"/>
<line x1="672" y1="156" x2="672" y2="756"/>
<line x1="762" y1="156" x2="762" y2="756"/>
<line x1="852" y1="156" x2="852" y2="756"/>
<line x1="942" y1="156" x2="942" y2="756"/>
<line x1="1032" y1="156" x2="1032" y2="756"/>
<line x1="1122" y1="156" x2="1122" y2="756"/>
<line x1="1212" y1="156" x2="1212" y2="756"/>
<line x1="1302" y1="156" x2="1302" y2="756"/>
<line x1="1392" y1="156" x2="1392" y2="756"/>
<line x1="1482" y1="156" x2="1482" y2="756"/>
</g>
<g stroke="#dadce0" stroke-width="0.5">
<line x1="0" y1="176" x2="1534" y2="176"/>
<line x1="0" y1="196" x2="1534" y2="196"/>
<line x1="0" y1="216" x2="1534" y2="216"/>
<line x1="0" y1="236" x2="1534" y2="236"/>
<line x1="0" y1="256" x2="1534" y2="256"/>
<line x1="0" y1="276" x2="1534" y2="276"/>
<line x1="0" y1="296" x2="1534" y2="296"/>
<line x1="0" y1="316" x2="1534" y2="316"/>
<line x1="0" y1="336" x2="1534" y2="336"/>
<line x1="0" y1="356" x2="1534" y2="356"/>
<line x1="0" y1="376" x2="1534" y2="376"/>
<line x1="0" y1="396" x2="1534" y2="396"/>
<line x1="0" y1="416" x2="1534" y2="416"/>
<line x1="0" y1="436" x2="1534" y2="436"/>
<line x1="0" y1="456" x2="1534" y2="456"/>
<line x1="0" y1="476" x2="1534" y2="476"/>
<line x1="0" y1="496" x2="1534" y2="496"/>
<line x1="0" y1="516" x2="1534" y2="516"/>
<line x1="0" y1="536" x2="1534" y2="536"/>
<line x1="0" y1="556" x2="1534" y2="556"/>
<line x1="0" y1="576" x2="1534" y2="576"/>
<line x1="0" y1="596" x2="1534" y2="596"/>
<line x1="0" y1="616" x2="1534" y2="616"/>
<line x1="0" y1="636" x2="1534" y2="636"/>
<line x1="0" y1="656" x2="1534" y2="656"/>
<line x1="0" y1="676" x2="1534" y2="676"/>
<line x1="0" y1="696" x2="1534" y2="696"/>
<line x1="0" y1="716" x2="1534" y2="716"/>
<line x1="0" y1="736" x2="1534" y2="736"/>
<line x1="0" y1="756" x2="1534" y2="756"/>
</g>
<!-- Row numbers -->
<g font-size="11" fill="#1967d2" text-anchor="middle" font-weight="500">
<text x="20" y="170">1</text>
<text x="20" y="190">2</text>
<text x="20" y="210">3</text>
<text x="20" y="230">4</text>
<text x="20" y="250">5</text>
<text x="20" y="270">6</text>
<text x="20" y="290">7</text>
<text x="20" y="310">8</text>
<text x="20" y="330">9</text>
<text x="20" y="350">10</text>
<text x="20" y="370">11</text>
<text x="20" y="390">12</text>
<text x="20" y="410">13</text>
<text x="20" y="430">14</text>
<text x="20" y="450">15</text>
<text x="20" y="470">16</text>
<text x="20" y="490">17</text>
<text x="20" y="510">18</text>
<text x="20" y="530">19</text>
<text x="20" y="550">20</text>
<text x="20" y="570">21</text>
<text x="20" y="590">22</text>
<text x="20" y="610">23</text>
<text x="20" y="630">24</text>
<text x="20" y="650">25</text>
<text x="20" y="670">26</text>
<text x="20" y="690">27</text>
<text x="20" y="710">28</text>
<text x="20" y="730">29</text>
<text x="20" y="750">30</text>
</g>
<!-- A1 selected cell (blue border) -->
<rect x="40" y="156" width="92" height="20" fill="#fff" stroke="#1a73e8" stroke-width="2"/>

<!-- Sheet tab bar at bottom -->
<rect x="0" y="730" width="1534" height="38" fill="#f8f9fa" stroke="#e8eaed"/>
<text x="60" y="752" font-size="18" fill="#5f6368">+</text>
<text x="94" y="752" font-size="16" fill="#5f6368">≡</text>
<rect x="124" y="736" width="76" height="26" fill="#fff" stroke="#dadce0" rx="2"/>
<text x="138" y="753" font-size="13" fill="#202124">シート1</text>
<text x="186" y="753" font-size="10" fill="#5f6368">▾</text>

<!-- ===== DROPDOWN MENU (top layer) ===== -->
<g>
<!-- Shadow -->
<rect x="464" y="58" width="276" height="166" fill="rgba(60,64,67,0.3)" rx="4"/>
<rect x="460" y="56" width="276" height="166" fill="#fff" rx="4" stroke="#dadce0"/>
<!-- アドオン -->
<rect x="460" y="56" width="276" height="30" fill="#fff"/>
<text x="476" y="64" font-size="11">📊</text>
<text x="490" y="75" font-size="13" fill="#202124">アドオン</text>
<text x="720" y="75" font-size="14" fill="#5f6368">▸</text>
<!-- マクロ -->
<rect x="460" y="86" width="276" height="30" fill="#fff"/>
<text x="480" y="105" font-size="14" fill="#5f6368">▶</text>
<text x="490" y="105" font-size="13" fill="#202124">マクロ</text>
<text x="720" y="105" font-size="14" fill="#5f6368">▸</text>
<!-- Apps Script — HOVERED (light gray bg) -->
<rect x="460" y="116" width="276" height="30" fill="#e8eaed"/>
<g transform="translate(480,124)">
  <path d="M0 0 L8 0 L4 7 Z" fill="#fbbc04"/>
  <path d="M4 7 L8 0 L12 7 Z" fill="#4285f4"/>
</g>
<text x="498" y="135" font-size="13" font-weight="500" fill="#202124">Apps Script</text>
<!-- Divider -->
<line x1="476" y1="150" x2="720" y2="150" stroke="#e8eaed"/>
<!-- AppSheet -->
<rect x="460" y="156" width="276" height="30" fill="#fff"/>
<polygon points="478,167 478,177 488,172" fill="#3ec3f5"/>
<polygon points="478,167 488,172 484,158" fill="#86c7f3"/>
<text x="498" y="175" font-size="13" fill="#202124">AppSheet</text>
<text x="720" y="175" font-size="14" fill="#5f6368">▸</text>
<!-- データポータル -->
<rect x="460" y="186" width="276" height="30" fill="#fff"/>
<text x="478" y="205" font-size="12" fill="#5f6368">⚙</text>
<text x="498" y="205" font-size="13" fill="#202124">データポータル</text>
<text x="720" y="205" font-size="14" fill="#5f6368">▸</text>
</g>

<!-- Cursor pointer on Apps Script -->
<g transform="translate(528,128)">
<path d="M0 0 L0 14 L4 11 L7 17 L9 16 L6 11 L11 11 Z" fill="#000" stroke="#fff" stroke-width="1"/>
</g>

<!-- COLOUR CALLOUT — bottom right outside menu -->
<rect x="780" y="116" width="360" height="100" rx="10" fill="#fa006d"/>
<text x="800" y="146" font-size="15" font-weight="700" fill="#fff">📌 ここをクリック</text>
<text x="800" y="170" font-size="12" fill="#fff">複製先スプシ専用の Apps Script エディタが</text>
<text x="800" y="188" font-size="12" fill="#fff">新しいタブで開きます</text>
<text x="800" y="208" font-size="11" fill="#fff" opacity="0.85">コードはマスターからコピー済み</text>
<!-- Arrow from callout to Apps Script item -->
<path d="M 778 152 L 745 131" stroke="#fa006d" stroke-width="3" fill="none" marker-end="url(#ar06)"/>
<defs><marker id="ar06" viewBox="0 0 10 10" refX="9" refY="5" markerWidth="8" markerHeight="8" orient="auto"><path d="M 0 0 L 10 5 L 0 10 z" fill="#fa006d"/></marker></defs>

<!-- Top-right red marker on 拡張機能 -->
<rect x="468" y="32" width="68" height="26" fill="none" stroke="#fa006d" stroke-width="2" rx="4"/>
<text x="500" y="690" font-size="14" font-weight="700" fill="#fa006d" text-anchor="middle">① 拡張機能</text>
<text x="500" y="710" font-size="12" fill="#fa006d" text-anchor="middle">→ ② Apps Script</text>
<path d="M 500 666 L 500 60" stroke="#fa006d" stroke-width="2" stroke-dasharray="4 3" fill="none"/>
</svg>
