<svg xmlns="http://www.w3.org/2000/svg" viewBox="0 0 1200 750" font-family="-apple-system, BlinkMacSystemFont, 'Segoe UI', Roboto, 'Helvetica Neue', Arial, sans-serif">
<rect width="1200" height="750" fill="#f5f5f5"/>

<rect x="0" y="0" width="1200" height="68" fill="#dee1e6"/>
<circle cx="20" cy="22" r="6" fill="#ff5f56"/>
<circle cx="40" cy="22" r="6" fill="#ffbd2e"/>
<circle cx="60" cy="22" r="6" fill="#27c93f"/>
<path d="M 90 44 Q 90 12 110 12 L 320 12 Q 340 12 340 44 Z" fill="#fff"/>
<circle cx="115" cy="28" r="7" fill="#1a73e8"/>
<text x="130" y="32" font-size="12" fill="#202124">Apps Script</text>
<rect x="110" y="46" width="980" height="22" rx="11" fill="#fff" stroke="#dadce0"/>
<text x="124" y="61" font-size="11" fill="#5f6368">🔒 script.google.com/.../edit</text>

<rect x="0" y="68" width="1200" height="682" fill="#f1f3f4"/>
<rect x="0" y="68" width="1200" height="682" fill="rgba(0,0,0,0.4)"/>
<rect x="240" y="100" width="720" height="540" fill="#fff" rx="12"/>
<text x="272" y="142" font-size="20" font-weight="700" fill="#202124">デプロイが更新されました</text>
<line x1="272" y1="162" x2="928" y2="162" stroke="#e8eaed"/>
<text x="272" y="194" font-size="12" fill="#5f6368">デプロイ ID</text>
<rect x="272" y="204" width="624" height="40" rx="4" fill="#f8f9fa" stroke="#dadce0"/>
<text x="288" y="229" font-size="12" font-family="'SF Mono','Consolas',monospace" fill="#202124">AKfycbxQ8z2J3LpKvMnR7sT4uV5wX6yZ9aB0cD1eF2gH3iJ4kL5mN6oP</text>
<rect x="868" y="208" width="24" height="32" fill="#fff" stroke="#dadce0" rx="3"/>
<text x="876" y="228" font-size="13" fill="#5f6368">📋</text>
<!-- Web App URL -->
<text x="272" y="282" font-size="13" font-weight="700" fill="#202124">ウェブアプリ</text>
<text x="272" y="306" font-size="11" fill="#5f6368">URL</text>
<rect x="272" y="316" width="624" height="56" rx="4" fill="#e8f0fe" stroke="#fa006d" stroke-width="3"/>
<text x="288" y="350" font-size="13" font-family="'SF Mono','Consolas',monospace" fill="#1a73e8">https://script.google.com/macros/s/AKfycbxQ8z2J3LpKvMnR7sT4uV/exec</text>
<rect x="850" y="320" width="40" height="48" fill="#fa006d" rx="6"/>
<text x="862" y="350" font-size="18" fill="#fff">📋</text>
<text x="855" y="386" font-size="10" font-weight="700" fill="#fa006d">コピー</text>
<!-- Callout -->
<rect x="272" y="396" width="624" height="80" rx="8" fill="#fff9f0" stroke="#f5c518" stroke-width="2"/>
<text x="288" y="424" font-size="13" font-weight="700" fill="#7a5a00">📋 この URL を必ずコピー</text>
<text x="288" y="446" font-size="12" fill="#7a5a00">次のステップで Chrome 拡張の popup にある「GAS URL」欄に</text>
<text x="288" y="464" font-size="12" fill="#7a5a00">そのまま貼り付けます。前回のURLは使えません</text>
<!-- Done button -->
<rect x="784" y="558" width="112" height="40" rx="6" fill="#1a73e8"/>
<text x="816" y="584" font-size="13" font-weight="700" fill="#fff">完了</text>
<path d="M 920 340 L 970 340" stroke="#fa006d" stroke-width="3" marker-end="url(#arr9)"/>
<defs><marker id="arr9" viewBox="0 0 10 10" refX="9" refY="5" markerWidth="8" markerHeight="8" orient="auto"><path d="M 0 0 L 10 5 L 0 10 z" fill="#fa006d"/></marker></defs>
<rect x="980" y="324" width="200" height="48" fill="#fa006d" rx="6"/>
<text x="998" y="349" font-size="13" font-weight="700" fill="#fff">この URL を popup へ</text>
<text x="998" y="365" font-size="11" fill="#fff">📍 次のステップ</text>

</svg>
